<?xml version="1.0" standalone="no"?>
<!DOCTYPE svg PUBLIC "-//W3C//DTD SVG 20010904//EN"
 "http://www.w3.org/TR/2001/REC-SVG-20010904/DTD/svg10.dtd">
<svg version="1.0" xmlns="http://www.w3.org/2000/svg"
 width="500.000000pt" height="500.000000pt" viewBox="0 0 500.000000 500.000000"
 preserveAspectRatio="xMidYMid meet">

<g transform="translate(0.000000,500.000000) scale(0.100000,-0.100000)"
fill="#000000" stroke="none">
<path d="M2184 4549 c-97 -51 -210 -138 -276 -213 -35 -39 -69 -77 -76 -85
-59 -61 -145 -240 -174 -361 -21 -85 -32 -319 -16 -335 20 -21 28 15 28 129 0
256 92 468 287 657 131 127 259 208 331 209 28 0 32 -3 32 -27 0 -16 -7 -50
-15 -78 -9 -27 -19 -72 -24 -100 -10 -59 -37 -161 -50 -190 -27 -60 -41 -95
-59 -140 -32 -82 -209 -383 -259 -442 -61 -72 -116 -108 -216 -145 -220 -80
-348 -174 -457 -335 -115 -171 -207 -549 -156 -641 17 -31 100 -97 156 -124
37 -18 71 -23 185 -29 222 -11 243 -18 316 -96 78 -83 83 -147 28 -343 -52
-187 -52 -451 2 -648 48 -180 183 -364 356 -488 107 -77 263 -137 263 -101 0
10 -19 21 -55 32 -162 47 -313 171 -436 358 -95 145 -126 251 -136 469 -7 152
3 236 44 388 31 115 34 224 8 288 -10 23 -37 60 -61 81 -24 21 -44 41 -44 43
0 3 32 9 70 12 81 8 192 44 259 83 103 60 231 213 272 326 16 44 28 179 15
166 -3 -2 -14 -40 -25 -84 -48 -184 -150 -319 -294 -390 -41 -20 -91 -41 -113
-46 -145 -36 -181 -41 -259 -33 -44 4 -134 8 -200 8 -108 1 -124 4 -165 26
-25 14 -51 30 -57 37 -16 14 -17 39 -3 48 6 3 10 25 10 49 0 32 -6 48 -23 64
-33 32 -53 28 -28 -4 23 -29 26 -55 11 -85 -15 -26 -35 -24 -59 7 -40 50 -23
191 47 399 87 257 204 385 465 510 135 64 254 136 319 194 20 17 56 67 79 109
80 147 125 205 238 305 220 195 439 329 651 396 131 41 206 54 294 49 42 -2
76 -1 76 3 0 19 -60 34 -129 32 -222 -5 -594 -175 -796 -363 -78 -73 -171
-150 -179 -150 -12 0 -5 21 28 90 53 109 94 242 122 398 14 84 10 114 -20 134
-23 16 -76 7 -132 -23z"/>
<path d="M3080 4345 c-276 -57 -584 -244 -792 -480 -101 -115 -137 -177 -167
-291 -30 -114 -32 -205 -5 -241 35 -47 73 -51 152 -15 37 16 108 44 157 62 50
17 104 38 120 45 109 47 135 60 180 88 184 114 310 237 434 422 93 138 128
218 138 305 7 70 -6 96 -55 110 -47 13 -80 12 -162 -5z m164 -47 c65 -34 -90
-344 -267 -535 -93 -99 -243 -209 -371 -272 -110 -54 -384 -151 -428 -151 -41
0 -51 29 -46 124 9 143 89 275 292 484 133 137 275 230 449 293 45 16 91 33
102 38 80 36 217 45 269 19z"/>
<path d="M3019 3713 c-13 -16 -12 -17 4 -4 9 7 17 15 17 17 0 8 -8 3 -21 -13z"/>
<path d="M2240 3257 c0 -9 18 -19 48 -27 144 -37 264 -80 409 -144 317 -143
473 -245 669 -441 146 -145 218 -238 300 -385 137 -245 194 -451 193 -691 0
-139 -14 -235 -53 -358 -29 -93 -32 -115 -15 -109 12 4 41 71 64 148 46 152
47 451 1 620 -50 188 -144 400 -230 518 -255 352 -463 513 -957 740 -103 48
-174 73 -299 107 -52 15 -103 29 -112 32 -12 3 -18 0 -18 -10z"/>
<path d="M1560 3098 c-100 -29 -180 -130 -200 -255 -10 -59 -7 -73 15 -73 9 0
15 20 20 63 13 114 59 183 151 226 47 23 167 30 179 11 10 -15 55 -12 55 4 0
32 -139 47 -220 24z"/>
</g>
</svg>
